<svg xmlns="http://www.w3.org/2000/svg" viewBox="0 0 251.08 72.98"><defs><style>.cls-1{isolation:isolate;}.cls-2{fill:#21b9fc;}.cls-3,.cls-4{fill:#fff;}.cls-4{font-size:52px;font-family:MazzardSoftM-Medium, Mazzard Soft M;font-weight:500;}</style></defs><g id="Layer_2" data-name="Layer 2"><g id="Rectangle_2" data-name="Rectangle 2" class="cls-1"><g id="Rectangle_2-2" data-name="Rectangle 2"><rect class="cls-2" width="79.42" height="72.98" rx="4.8"/></g></g><g id="Hat"><g id="Cord"><g id="Rectangle_1" data-name="Rectangle 1"><rect class="cls-3" x="60.36" y="29.5" width="0.9" height="12.15"/></g><g id="Ellipse_1" data-name="Ellipse 1"><path class="cls-3" d="M61,38.56A2.49,2.49,0,1,0,63.42,41,2.47,2.47,0,0,0,61,38.56Z"/></g><g id="Triangle_1" data-name="Triangle 1"><polygon class="cls-3" points="60.96 37.4 57.96 51.07 63.97 51.07 60.96 37.4"/></g></g><g id="Bottom"><path class="cls-3" d="M64.16,28.5,41.31,22.11a5.29,5.29,0,0,0-2.81,0L15.25,28.5a.84.84,0,0,0-.61.8.83.83,0,0,0,.61.8L38.5,36.69a3.73,3.73,0,0,0,2.41,0L64.37,30.1a.9.9,0,0,0-.21-1.6Z"/></g><g id="Upper"><path class="cls-3" d="M54.14,38.09a14.94,14.94,0,0,0-1.4-3.2l-11.83,3.4a3.86,3.86,0,0,1-1,.2,3.74,3.74,0,0,1-1.41-.2l-11.83-3.4a11.83,11.83,0,0,0-1.4,2.8,11.52,11.52,0,0,0-.6,4.59,1.54,1.54,0,0,0,.4,1,1.44,1.44,0,0,0,.6.4L38.1,48.07a6.54,6.54,0,0,0,3.21,0l12.43-4.39a1.44,1.44,0,0,0,1-1,.9.9,0,0,0,0-.4A14.16,14.16,0,0,0,54.14,38.09Z"/></g></g><g id="studus"><text class="cls-4" transform="translate(98.98 49.58)">studus</text></g></g></svg>