<svg xmlns="http://www.w3.org/2000/svg" viewBox="0 0 248.01 72.98"><defs><style>.cls-1{isolation:isolate;}.cls-2{fill:#21b9fc;}.cls-3{fill:#fff;}</style></defs><g id="Layer_2" data-name="Layer 2"><g id="Rectangle_2" data-name="Rectangle 2" class="cls-1"><g id="Rectangle_2-2" data-name="Rectangle 2"><rect class="cls-2" width="79.42" height="72.98" rx="4.8"/></g></g><g id="Hat"><g id="Cord"><g id="Rectangle_1" data-name="Rectangle 1"><rect class="cls-3" x="60.36" y="29.5" width="0.9" height="12.15"/></g><g id="Ellipse_1" data-name="Ellipse 1"><path class="cls-3" d="M61,38.56A2.49,2.49,0,1,0,63.42,41,2.47,2.47,0,0,0,61,38.56Z"/></g><g id="Triangle_1" data-name="Triangle 1"><polygon class="cls-3" points="60.96 37.4 57.96 51.07 63.97 51.07 60.96 37.4"/></g></g><g id="Bottom"><path class="cls-3" d="M64.16,28.5,41.31,22.11a5.29,5.29,0,0,0-2.81,0L15.25,28.5a.84.84,0,0,0-.61.8.83.83,0,0,0,.61.8L38.5,36.69a3.73,3.73,0,0,0,2.41,0L64.37,30.1a.9.9,0,0,0-.21-1.6Z"/></g><g id="Upper"><path class="cls-3" d="M54.14,38.09a14.94,14.94,0,0,0-1.4-3.2l-11.83,3.4a3.86,3.86,0,0,1-1,.2,3.74,3.74,0,0,1-1.41-.2l-11.83-3.4a11.83,11.83,0,0,0-1.4,2.8,11.52,11.52,0,0,0-.6,4.59,1.54,1.54,0,0,0,.4,1,1.44,1.44,0,0,0,.6.4L38.1,48.07a6.54,6.54,0,0,0,3.21,0l12.43-4.39a1.44,1.44,0,0,0,1-1,.9.9,0,0,0,0-.4A14.16,14.16,0,0,0,54.14,38.09Z"/></g></g><g id="studus-vec"><path class="cls-3" d="M115.21,32.16a2.09,2.09,0,0,1-1.57-.73c-.72-1.14-2.08-1.72-4-1.72a5.28,5.28,0,0,0-2.78.68,2,2,0,0,0-1.12,1.82c0,1,.76,1.75,2.29,2.34l5.25,1.82q5.72,2,5.72,6.71a6.1,6.1,0,0,1-2.55,5.3A10.78,10.78,0,0,1,110,50.2a11.29,11.29,0,0,1-5.82-1.38,7.18,7.18,0,0,1-3.23-3.71A1.23,1.23,0,0,1,101,44a1.44,1.44,0,0,1,1-.62l1.87-.26a1.52,1.52,0,0,1,1.46.78Q106.57,46,110.06,46a6.11,6.11,0,0,0,3.14-.75,2.31,2.31,0,0,0,1.28-2.06c0-1.14-1-2-2.86-2.7l-5.2-1.72a8.78,8.78,0,0,1-4-2.44,5.69,5.69,0,0,1-1.28-3.8,6.06,6.06,0,0,1,2.47-5.25A10.61,10.61,0,0,1,110,25.55a10.4,10.4,0,0,1,5.23,1.23,6.52,6.52,0,0,1,3,3.35,1.14,1.14,0,0,1-.1,1,1.31,1.31,0,0,1-1,.62Z"/><path class="cls-3" d="M123.08,29.92a1.41,1.41,0,0,1-.39-1v-1.4A1.33,1.33,0,0,1,124,26.18h2.19V23a1.45,1.45,0,0,1,.41-1,1.53,1.53,0,0,1,1.1-.41h1.71a1.54,1.54,0,0,1,1.07.41,1.4,1.4,0,0,1,.44,1v3.23h5a1.32,1.32,0,0,1,1.35,1.35v1.4a1.44,1.44,0,0,1-.38,1,1.28,1.28,0,0,1-1,.42h-5V41.83a3.26,3.26,0,0,0,.88,2.29,2.9,2.9,0,0,0,2.19.93H136a1.28,1.28,0,0,1,1,.42,1.44,1.44,0,0,1,.38,1v1.77A1.32,1.32,0,0,1,136,49.58h-2.23a7.43,7.43,0,0,1-5.33-2.06,6.77,6.77,0,0,1-2.16-5.12V30.34H124A1.26,1.26,0,0,1,123.08,29.92Z"/><path class="cls-3" d="M143.39,26.59a1.43,1.43,0,0,1,1-.41h1.77a1.51,1.51,0,0,1,1.06.41,1.37,1.37,0,0,1,.45,1v12A5.85,5.85,0,0,0,149.42,44a5.77,5.77,0,0,0,4.26,1.72,6.19,6.19,0,0,0,4.48-1.77A5.81,5.81,0,0,0,160,39.59v-12a1.4,1.4,0,0,1,1.45-1.45h1.77a1.43,1.43,0,0,1,1,.41,1.42,1.42,0,0,1,.42,1V48.12a1.43,1.43,0,0,1-1.46,1.46h-1.77a1.42,1.42,0,0,1-1-.42,1.43,1.43,0,0,1-.41-1V46.2a8.62,8.62,0,0,1-7.65,4,9.06,9.06,0,0,1-6.7-2.65A9,9,0,0,1,143,41V27.63A1.42,1.42,0,0,1,143.39,26.59Z"/><path class="cls-3" d="M174.12,46.67a12.56,12.56,0,0,1-3.22-8.79,12.56,12.56,0,0,1,3.22-8.79,10.88,10.88,0,0,1,16-.05V13.33a1.4,1.4,0,0,1,1.45-1.45h1.77a1.43,1.43,0,0,1,1,.41,1.42,1.42,0,0,1,.42,1V48.12a1.43,1.43,0,0,1-1.46,1.46h-1.77a1.42,1.42,0,0,1-1-.42,1.43,1.43,0,0,1-.41-1v-1.4a10.91,10.91,0,0,1-16,0Zm3.72-14.2a7.6,7.6,0,0,0-2.05,5.41,7.6,7.6,0,0,0,2.05,5.41,7,7,0,0,0,10.14,0A7.6,7.6,0,0,0,190,37.88,7.6,7.6,0,0,0,188,32.47a7,7,0,0,0-10.14,0Z"/><path class="cls-3" d="M202.46,26.59a1.45,1.45,0,0,1,1-.41h1.77a1.56,1.56,0,0,1,1.07.41,1.4,1.4,0,0,1,.44,1v12A5.85,5.85,0,0,0,208.49,44a5.79,5.79,0,0,0,4.27,1.72,6.16,6.16,0,0,0,4.47-1.77,5.81,5.81,0,0,0,1.82-4.32v-12a1.4,1.4,0,0,1,1.46-1.45h1.76a1.42,1.42,0,0,1,1.46,1.45V48.12a1.4,1.4,0,0,1-.42,1,1.39,1.39,0,0,1-1,.42h-1.76a1.42,1.42,0,0,1-1.46-1.46V46.2a8.61,8.61,0,0,1-7.64,4,9.06,9.06,0,0,1-6.71-2.65,9,9,0,0,1-2.65-6.6V27.63A1.41,1.41,0,0,1,202.46,26.59Z"/><path class="cls-3" d="M244.27,32.16a2.06,2.06,0,0,1-1.56-.73c-.73-1.14-2.08-1.72-4.06-1.72a5.3,5.3,0,0,0-2.78.68,2.07,2.07,0,0,0-1.12,1.82c0,1,.77,1.75,2.29,2.34l5.25,1.82q5.73,2,5.72,6.71a6.1,6.1,0,0,1-2.55,5.3A10.73,10.73,0,0,1,239,50.2a11.31,11.31,0,0,1-5.83-1.38A7.16,7.16,0,0,1,230,45.11a1.17,1.17,0,0,1,.13-1.1,1.4,1.4,0,0,1,1-.62l1.87-.26a1.51,1.51,0,0,1,1.46.78q1.2,2.13,4.68,2.13a6.12,6.12,0,0,0,3.15-.75,2.3,2.3,0,0,0,1.27-2.06c0-1.14-.95-2-2.86-2.7l-5.2-1.72a8.84,8.84,0,0,1-4-2.44,5.68,5.68,0,0,1-1.27-3.8,6,6,0,0,1,2.47-5.25A10.59,10.59,0,0,1,239,25.55a10.39,10.39,0,0,1,5.22,1.23,6.48,6.48,0,0,1,3,3.35,1.11,1.11,0,0,1-.1,1,1.31,1.31,0,0,1-1,.62Z"/></g></g></svg>