<?xml version="1.0" encoding="UTF-8"?>
<svg id="Layer_2" data-name="Layer 2" xmlns="http://www.w3.org/2000/svg" viewBox="0 0 253.18 72.98">
  <defs>
    <style>
      .cls-1, .cls-2 {
        fill: #fff;
      }

      .cls-3 {
        fill: #21b9fc;
      }

      .cls-4 {
        fill: none;
        isolation: isolate;
      }

      .cls-2 {
        font-family: Montserrat-SemiBold, Montserrat;
        font-size: 7px;
        font-weight: 600;
      }
    </style>
  </defs>
  <g id="Rectangle_2" data-name="Rectangle 2" class="cls-4">
    <g id="Rectangle_2-2" data-name="Rectangle 2">
      <rect class="cls-3" x="0" y="0" width="79.42" height="72.98" rx="4.8" ry="4.8"/>
    </g>
  </g>
  <g id="Hat">
    <g id="Cord">
      <g id="Rectangle_1" data-name="Rectangle 1">
        <rect class="cls-1" x="60.36" y="29.5" width=".9" height="12.15"/>
      </g>
      <g id="Ellipse_1" data-name="Ellipse 1">
        <path class="cls-1" d="m60.96,38.56c-1.36,0-2.46,1.11-2.46,2.49s1.1,2.49,2.46,2.49,2.46-1.11,2.46-2.49-1.1-2.49-2.46-2.49Z"/>
      </g>
      <g id="Triangle_1" data-name="Triangle 1">
        <polygon class="cls-1" points="60.96 37.4 57.96 51.07 63.97 51.07 60.96 37.4"/>
      </g>
    </g>
    <g id="Bottom">
      <path class="cls-1" d="m64.16,28.5c-7.62-2.13-15.24-4.26-22.86-6.39-.46-.13-.93-.2-1.4-.2s-.95.07-1.4.2c-7.75,2.13-15.5,4.26-23.26,6.39-.36.1-.6.43-.6.8s.25.7.6.8c7.75,2.2,15.5,4.39,23.26,6.59.39.13.79.2,1.2.2s.82-.07,1.2-.2c7.82-2.2,15.64-4.39,23.46-6.59.26-.18.42-.48.4-.8-.02-.35-.25-.67-.6-.8Z"/>
    </g>
    <g id="Upper">
      <path class="cls-1" d="m54.14,38.09c-.34-1.12-.81-2.19-1.4-3.19-3.94,1.13-7.89,2.26-11.83,3.39-.32.11-.66.18-1,.2-.48.03-.95-.04-1.4-.2-3.94-1.13-7.89-2.26-11.83-3.39-.59.87-1.06,1.81-1.4,2.8-.51,1.47-.71,3.03-.6,4.59.01.37.15.73.4,1,.16.18.37.31.6.4,4.14,1.46,8.29,2.93,12.43,4.39.52.13,1.06.2,1.6.2s1.08-.07,1.6-.2c4.14-1.46,8.29-2.93,12.43-4.39.48-.17.91-.52,1-1,.03-.13.02-.26,0-.4,0-1.42-.19-2.83-.6-4.19Z"/>
    </g>
  </g>
  <g id="FAÇA_DO_MUNDO_O_SEU_CAMPUS" data-name="FAÇA DO MUNDO O SEU CAMPUS">
    <text class="cls-2" transform="translate(101.5 56.26)"><tspan x="0" y="0">FAÇA DO MUNDO O SEU CAMPUS</tspan></text>
  </g>
  <g id="studus-vec">
    <g>
      <path class="cls-1" d="m115.21,28.52c-.59,0-1.11-.24-1.56-.73-.73-1.14-2.08-1.72-4.06-1.72-1.11,0-2.04.23-2.78.68-.75.45-1.12,1.06-1.12,1.82,0,.97.76,1.75,2.29,2.34l5.25,1.82c3.81,1.35,5.72,3.59,5.72,6.71,0,2.32-.85,4.09-2.55,5.3-1.7,1.21-3.85,1.82-6.45,1.82-2.32,0-4.26-.46-5.82-1.38s-2.63-2.16-3.22-3.72c-.14-.38-.1-.75.13-1.09.23-.35.56-.55,1.01-.62l1.87-.26c.69,0,1.18.26,1.46.78.8,1.42,2.36,2.13,4.68,2.13,1.25,0,2.3-.25,3.15-.75.85-.5,1.27-1.19,1.27-2.05,0-1.14-.95-2.05-2.86-2.7l-5.2-1.72c-1.8-.62-3.13-1.44-3.98-2.44-.85-1.01-1.27-2.27-1.27-3.8,0-2.32.82-4.07,2.47-5.25,1.65-1.18,3.75-1.77,6.32-1.77,2.05,0,3.79.41,5.23,1.22,1.44.81,2.44,1.93,2.99,3.35.14.35.1.69-.1,1.04s-.54.55-.99.62l-1.87.36Z"/>
      <path class="cls-1" d="m123.08,26.29c-.26-.28-.39-.61-.39-.99v-1.4c0-.38.13-.7.39-.96.26-.26.58-.39.96-.39h2.18v-3.22c0-.42.14-.76.42-1.04.28-.28.64-.42,1.09-.42h1.72c.42,0,.77.14,1.07.42.29.28.44.62.44,1.04v3.22h4.99c.38,0,.7.13.96.39.26.26.39.58.39.96v1.4c0,.38-.13.71-.39.99s-.58.42-.96.42h-4.99v11.49c0,.9.29,1.66.88,2.29s1.32.94,2.18.94h1.92c.38,0,.7.14.96.42s.39.61.39.99v1.77c0,.38-.13.7-.39.96-.26.26-.58.39-.96.39h-2.24c-2.12,0-3.89-.68-5.33-2.05-1.44-1.37-2.16-3.08-2.16-5.12v-12.06h-2.18c-.38,0-.7-.14-.96-.42Z"/>
      <path class="cls-1" d="m143.39,22.96c.28-.28.62-.42,1.04-.42h1.77c.42,0,.77.14,1.07.42s.44.62.44,1.04v12.01c0,1.73.57,3.17,1.72,4.32,1.14,1.14,2.57,1.72,4.26,1.72s3.26-.59,4.47-1.77c1.21-1.18,1.82-2.62,1.82-4.32v-11.96c0-.42.14-.76.42-1.04s.62-.42,1.04-.42h1.77c.42,0,.76.14,1.04.42s.42.62.42,1.04v20.49c0,.42-.14.76-.42,1.04s-.62.42-1.04.42h-1.77c-.42,0-.76-.14-1.04-.42s-.42-.62-.42-1.04v-1.92c-1.77,2.67-4.32,4-7.64,4-2.7,0-4.94-.88-6.71-2.65-1.77-1.77-2.65-3.97-2.65-6.6v-13.31c0-.42.14-.76.42-1.04Z"/>
      <path class="cls-1" d="m174.12,43.03c-2.15-2.36-3.22-5.29-3.22-8.79s1.07-6.43,3.22-8.79c2.15-2.36,4.82-3.54,8.01-3.54s5.86,1.16,8.01,3.48v-15.7c0-.42.14-.76.42-1.04s.62-.42,1.04-.42h1.77c.42,0,.76.14,1.04.42s.42.62.42,1.04v34.79c0,.42-.14.76-.42,1.04s-.62.42-1.04.42h-1.77c-.42,0-.76-.14-1.04-.42s-.42-.62-.42-1.04v-1.4c-2.15,2.32-4.82,3.48-8.01,3.48s-5.86-1.18-8.01-3.54Zm3.72-14.2c-1.37,1.46-2.05,3.26-2.05,5.41s.68,3.95,2.05,5.41,3.06,2.18,5.07,2.18,3.7-.73,5.07-2.18c1.37-1.46,2.05-3.26,2.05-5.41s-.68-3.95-2.05-5.41c-1.37-1.46-3.06-2.18-5.07-2.18s-3.7.73-5.07,2.18Z"/>
      <path class="cls-1" d="m202.46,22.96c.28-.28.62-.42,1.04-.42h1.77c.42,0,.77.14,1.07.42s.44.62.44,1.04v12.01c0,1.73.57,3.17,1.72,4.32,1.14,1.14,2.57,1.72,4.26,1.72s3.26-.59,4.47-1.77c1.21-1.18,1.82-2.62,1.82-4.32v-11.96c0-.42.14-.76.42-1.04.28-.28.62-.42,1.04-.42h1.77c.42,0,.76.14,1.04.42s.42.62.42,1.04v20.49c0,.42-.14.76-.42,1.04s-.62.42-1.04.42h-1.77c-.42,0-.76-.14-1.04-.42-.28-.28-.42-.62-.42-1.04v-1.92c-1.77,2.67-4.32,4-7.64,4-2.7,0-4.94-.88-6.71-2.65-1.77-1.77-2.65-3.97-2.65-6.6v-13.31c0-.42.14-.76.42-1.04Z"/>
      <path class="cls-1" d="m244.27,28.52c-.59,0-1.11-.24-1.56-.73-.73-1.14-2.08-1.72-4.06-1.72-1.11,0-2.04.23-2.78.68-.75.45-1.12,1.06-1.12,1.82,0,.97.76,1.75,2.29,2.34l5.25,1.82c3.81,1.35,5.72,3.59,5.72,6.71,0,2.32-.85,4.09-2.55,5.3-1.7,1.21-3.85,1.82-6.45,1.82-2.32,0-4.26-.46-5.82-1.38-1.56-.92-2.63-2.16-3.22-3.72-.14-.38-.1-.75.13-1.09s.56-.55,1.01-.62l1.87-.26c.69,0,1.18.26,1.46.78.8,1.42,2.36,2.13,4.68,2.13,1.25,0,2.3-.25,3.15-.75.85-.5,1.27-1.19,1.27-2.05,0-1.14-.95-2.05-2.86-2.7l-5.2-1.72c-1.8-.62-3.13-1.44-3.98-2.44s-1.27-2.27-1.27-3.8c0-2.32.82-4.07,2.47-5.25,1.65-1.18,3.75-1.77,6.32-1.77,2.04,0,3.79.41,5.23,1.22,1.44.81,2.44,1.93,2.99,3.35.14.35.1.69-.1,1.04-.21.35-.54.55-.99.62l-1.87.36Z"/>
    </g>
  </g>
</svg>