<?xml version="1.0" encoding="UTF-8"?>
<svg xmlns="http://www.w3.org/2000/svg" viewBox="0 0 281.4 94.2">
  <defs>
    <style>
      .cls-1 {
        fill: #fff;
      }

      .cls-2 {
        fill: #21b9fc;
      }

      .cls-3 {
        fill: none;
        isolation: isolate;
      }
    </style>
  </defs>
  <g id="Rectangle_2" data-name="Rectangle 2" class="cls-3">
    <g id="Rectangle_2-2" data-name="Rectangle 2">
      <rect class="cls-2" x="9.38" y="10.61" width="79.42" height="72.98" rx="4.8" ry="4.8"/>
    </g>
  </g>
  <g id="Hat">
    <g id="Cord">
      <g id="Rectangle_1" data-name="Rectangle 1">
        <rect class="cls-1" x="69.74" y="40.11" width=".9" height="12.15"/>
      </g>
      <g id="Ellipse_1" data-name="Ellipse 1">
        <path class="cls-1" d="m70.34,49.17c-1.36,0-2.46,1.11-2.46,2.49s1.1,2.49,2.46,2.49,2.46-1.11,2.46-2.49-1.1-2.49-2.46-2.49Z"/>
      </g>
      <g id="Triangle_1" data-name="Triangle 1">
        <polygon class="cls-1" points="70.34 48.01 67.34 61.68 73.35 61.68 70.34 48.01"/>
      </g>
    </g>
    <g id="Bottom">
      <path class="cls-1" d="m73.55,39.11c-7.62-2.13-15.24-4.26-22.86-6.39-.46-.13-.93-.2-1.4-.2s-.95.07-1.4.2c-7.75,2.13-15.5,4.26-23.26,6.39-.36.1-.6.43-.6.8s.25.7.6.8c7.75,2.2,15.5,4.39,23.26,6.59.39.13.79.2,1.2.2s.82-.07,1.2-.2c7.82-2.2,15.64-4.39,23.46-6.59.26-.18.42-.48.4-.8-.02-.35-.25-.67-.6-.8Z"/>
    </g>
    <g id="Upper">
      <path class="cls-1" d="m63.52,48.7c-.34-1.12-.81-2.19-1.4-3.19-3.94,1.13-7.89,2.26-11.83,3.39-.32.11-.66.18-1,.2-.48.03-.95-.04-1.4-.2-3.94-1.13-7.89-2.26-11.83-3.39-.59.87-1.06,1.81-1.4,2.8-.51,1.47-.71,3.03-.6,4.59.01.37.15.73.4,1,.16.18.37.31.6.4,4.14,1.46,8.29,2.93,12.43,4.39.52.13,1.06.2,1.6.2s1.08-.07,1.6-.2c4.14-1.46,8.29-2.93,12.43-4.39.48-.17.91-.52,1-1,.03-.13.02-.26,0-.4,0-1.42-.19-2.83-.6-4.19Z"/>
    </g>
  </g>
  <g id="slogan-vec">
    <g>
      <path class="cls-1" d="m112.45,66.87h-.91v-4.9h3.58v.76h-2.67v4.14Zm-.08-2.65h2.44v.77h-2.44v-.77Z"/>
      <path class="cls-1" d="m116.08,66.87l2.21-4.9h.9l2.21,4.9h-.95l-1.9-4.42h.36l-1.89,4.42h-.94Zm1.02-1.13l.25-.71h2.65l.25.71h-3.14Z"/>
      <path class="cls-1" d="m125.19,66.94c-.37,0-.72-.06-1.04-.19-.32-.12-.6-.3-.83-.53-.24-.23-.42-.49-.55-.8-.13-.31-.2-.64-.2-1.01s.07-.7.2-1.01c.13-.31.31-.58.55-.8.24-.23.52-.4.83-.52.32-.12.67-.19,1.04-.19.4,0,.77.07,1.1.21.33.14.61.34.84.61l-.59.55c-.18-.19-.38-.33-.6-.43s-.46-.14-.71-.14-.49.04-.7.13-.4.2-.55.36c-.16.15-.28.34-.36.55s-.13.44-.13.69.04.48.13.69.21.39.36.55c.16.15.34.27.55.36.21.08.45.13.7.13s.49-.05.71-.14.42-.24.6-.44l.59.56c-.23.27-.51.47-.84.61-.33.14-.7.21-1.11.21Zm-.33,1.53c-.13,0-.24-.01-.35-.04s-.21-.06-.29-.11l.16-.41c.07.04.15.07.23.08.08.02.16.03.25.03.14,0,.23-.02.29-.07s.08-.11.08-.18c0-.07-.03-.13-.09-.17-.06-.04-.15-.06-.28-.06h-.22l.19-.71h.48l-.1.39c.21.02.36.09.46.2.1.11.15.24.15.39,0,.21-.09.37-.26.49-.17.12-.4.18-.69.18Z"/>
      <path class="cls-1" d="m128.2,66.87l2.21-4.9h.9l2.21,4.9h-.95l-1.9-4.42h.36l-1.89,4.42h-.94Zm1.02-1.13l.25-.71h2.65l.25.71h-3.14Z"/>
      <path class="cls-1" d="m138.03,66.87v-4.9h2.14c.53,0,1,.1,1.4.31.4.21.71.49.94.85.22.36.34.79.34,1.29s-.11.92-.34,1.29c-.22.37-.54.65-.94.86-.4.21-.87.31-1.4.31h-2.14Zm.91-.77h1.19c.37,0,.69-.07.96-.21.27-.14.48-.34.62-.59.15-.25.22-.55.22-.88s-.07-.64-.22-.89c-.15-.25-.36-.44-.62-.58-.27-.14-.59-.21-.96-.21h-1.19v3.36Z"/>
      <path class="cls-1" d="m147.08,66.94c-.38,0-.74-.06-1.06-.19-.32-.13-.6-.3-.84-.53-.24-.23-.42-.49-.55-.8s-.2-.64-.2-1,.07-.7.2-1,.32-.57.55-.8c.24-.23.52-.4.84-.53.32-.13.67-.19,1.05-.19s.73.06,1.05.19c.32.13.6.3.84.53.24.23.42.49.55.8.13.31.2.64.2,1s-.07.7-.2,1.01c-.13.31-.31.57-.55.8-.24.22-.52.4-.84.52-.32.13-.67.19-1.05.19Zm0-.8c.25,0,.48-.04.69-.13.21-.08.39-.2.55-.36.15-.16.27-.34.36-.55.09-.21.13-.44.13-.69s-.04-.48-.13-.69c-.09-.21-.21-.39-.36-.55-.15-.16-.34-.28-.55-.36s-.44-.13-.69-.13-.48.04-.68.13c-.21.08-.39.2-.55.36s-.28.34-.36.55c-.09.21-.13.44-.13.69s.04.48.13.69.21.39.36.55c.15.16.34.28.55.36.21.08.44.13.69.13Z"/>
      <path class="cls-1" d="m154.57,66.87v-4.9h.75l2.14,3.58h-.39l2.11-3.58h.75v4.9s-.85,0-.85,0v-3.55s.17,0,.17,0l-1.79,2.99h-.41l-1.82-2.99h.21v3.55h-.87Z"/>
      <path class="cls-1" d="m164.35,66.94c-.67,0-1.2-.19-1.58-.57-.38-.38-.57-.92-.57-1.64v-2.77h.91v2.73c0,.5.11.87.33,1.1s.52.34.92.34.7-.12.92-.34c.21-.23.32-.59.32-1.1v-2.73h.9v2.77c0,.71-.19,1.26-.57,1.64-.38.38-.9.57-1.57.57Z"/>
      <path class="cls-1" d="m168.74,66.87v-4.9h.75l3.07,3.77h-.37v-3.77h.9v4.9h-.75l-3.07-3.77h.37v3.77h-.9Z"/>
      <path class="cls-1" d="m175.39,66.87v-4.9h2.14c.53,0,1,.1,1.4.31s.71.49.94.85c.22.36.34.79.34,1.29s-.11.92-.34,1.29c-.22.37-.54.65-.94.86-.4.21-.87.31-1.4.31h-2.14Zm.91-.77h1.19c.37,0,.69-.07.96-.21.27-.14.48-.34.62-.59.15-.25.22-.55.22-.88s-.07-.64-.22-.89c-.15-.25-.36-.44-.62-.58-.27-.14-.59-.21-.96-.21h-1.19v3.36Z"/>
      <path class="cls-1" d="m184.45,66.94c-.38,0-.74-.06-1.06-.19-.32-.13-.6-.3-.84-.53-.24-.23-.42-.49-.55-.8s-.2-.64-.2-1,.07-.7.2-1,.32-.57.55-.8c.24-.23.52-.4.84-.53.32-.13.67-.19,1.05-.19s.73.06,1.05.19c.32.13.6.3.84.53.24.23.42.49.55.8.13.31.2.64.2,1s-.07.7-.2,1.01c-.13.31-.31.57-.55.8-.24.22-.52.4-.84.52-.32.13-.67.19-1.05.19Zm0-.8c.25,0,.48-.04.69-.13.21-.08.39-.2.55-.36.15-.16.27-.34.36-.55.09-.21.13-.44.13-.69s-.04-.48-.13-.69c-.09-.21-.21-.39-.36-.55-.15-.16-.34-.28-.55-.36s-.44-.13-.69-.13-.48.04-.68.13c-.21.08-.39.2-.55.36s-.28.34-.36.55c-.09.21-.13.44-.13.69s.04.48.13.69.21.39.36.55c.15.16.34.28.55.36.21.08.44.13.69.13Z"/>
      <path class="cls-1" d="m194.24,66.94c-.38,0-.74-.06-1.06-.19-.32-.13-.6-.3-.84-.53-.24-.23-.42-.49-.55-.8s-.2-.64-.2-1,.07-.7.2-1,.32-.57.55-.8c.24-.23.52-.4.84-.53.32-.13.67-.19,1.05-.19s.73.06,1.05.19c.32.13.6.3.84.53.24.23.42.49.55.8.13.31.2.64.2,1s-.07.7-.2,1.01c-.13.31-.31.57-.55.8-.24.22-.52.4-.84.52-.32.13-.67.19-1.05.19Zm0-.8c.25,0,.48-.04.69-.13.21-.08.39-.2.55-.36.15-.16.27-.34.36-.55.09-.21.13-.44.13-.69s-.04-.48-.13-.69c-.09-.21-.21-.39-.36-.55-.15-.16-.34-.28-.55-.36s-.44-.13-.69-.13-.48.04-.68.13c-.21.08-.39.2-.55.36s-.28.34-.36.55c-.09.21-.13.44-.13.69s.04.48.13.69.21.39.36.55c.15.16.34.28.55.36.21.08.44.13.69.13Z"/>
      <path class="cls-1" d="m203.24,66.94c-.38,0-.75-.06-1.1-.17-.35-.11-.63-.25-.83-.42l.31-.71c.2.15.44.28.73.38s.59.15.89.15c.26,0,.46-.03.62-.08.16-.06.28-.13.35-.23.07-.1.11-.2.11-.33,0-.15-.05-.27-.16-.36s-.25-.16-.42-.22c-.17-.05-.36-.1-.57-.15-.21-.05-.42-.1-.62-.17-.21-.06-.4-.14-.57-.25-.17-.1-.31-.23-.42-.4s-.16-.38-.16-.64.07-.51.21-.73.36-.4.65-.53c.29-.13.66-.2,1.11-.2.29,0,.58.04.88.11.29.08.54.18.76.32l-.29.71c-.22-.13-.45-.23-.68-.29-.23-.06-.46-.09-.67-.09-.25,0-.46.03-.61.09s-.27.14-.34.24c-.07.1-.11.21-.11.34,0,.15.05.27.16.36.11.09.24.16.41.21.17.05.36.1.57.15s.42.1.63.16.4.14.57.24c.17.1.31.23.41.4.1.17.16.38.16.64s-.07.5-.21.72-.36.4-.65.53c-.29.13-.67.2-1.11.2Z"/>
      <path class="cls-1" d="m208.02,66.11h2.76v.76h-3.67v-4.9h3.58v.76h-2.67v3.37Zm-.07-2.1h2.44v.75h-2.44v-.75Z"/>
      <path class="cls-1" d="m214.89,66.94c-.67,0-1.2-.19-1.58-.57-.38-.38-.57-.92-.57-1.64v-2.77h.91v2.73c0,.5.11.87.33,1.1s.52.34.92.34.7-.12.92-.34c.21-.23.32-.59.32-1.1v-2.73h.9v2.77c0,.71-.19,1.26-.57,1.64-.38.38-.9.57-1.57.57Z"/>
      <path class="cls-1" d="m224.46,66.94c-.37,0-.72-.06-1.04-.19-.32-.12-.6-.3-.83-.53-.24-.23-.42-.49-.55-.8-.13-.31-.2-.64-.2-1.01s.07-.7.2-1.01.32-.58.55-.8c.24-.23.52-.4.83-.52.32-.12.67-.19,1.04-.19.4,0,.77.07,1.1.21.33.14.61.34.84.61l-.59.55c-.18-.19-.38-.33-.59-.43-.22-.1-.46-.14-.71-.14s-.49.04-.7.13-.4.2-.55.36c-.16.15-.28.34-.36.55s-.13.44-.13.69.04.48.13.69.21.39.36.55.34.27.55.36c.21.08.45.13.7.13s.5-.05.71-.14c.22-.1.42-.24.59-.44l.59.56c-.23.27-.51.47-.84.61-.33.14-.7.21-1.11.21Z"/>
      <path class="cls-1" d="m227.46,66.87l2.21-4.9h.9l2.21,4.9h-.95l-1.9-4.42h.36l-1.89,4.42h-.94Zm1.02-1.13l.24-.71h2.65l.25.71h-3.14Z"/>
      <path class="cls-1" d="m234.38,66.87v-4.9h.75l2.14,3.58h-.39l2.11-3.58h.75v4.9s-.85,0-.85,0v-3.55s.17,0,.17,0l-1.79,2.99h-.41l-1.82-2.99h.21v3.55h-.87Z"/>
      <path class="cls-1" d="m242.05,66.87v-4.9h2.02c.43,0,.81.07,1.12.21.31.14.55.34.72.6s.25.57.25.93-.08.67-.25.93c-.17.26-.41.46-.72.6-.31.14-.68.21-1.12.21h-1.51l.41-.43v1.84h-.91Zm.91-1.74l-.41-.44h1.47c.4,0,.7-.09.91-.26.2-.17.3-.41.3-.72s-.1-.55-.3-.72c-.2-.17-.5-.25-.91-.25h-1.47l.41-.45v2.83Z"/>
      <path class="cls-1" d="m250.14,66.94c-.67,0-1.2-.19-1.58-.57-.38-.38-.57-.92-.57-1.64v-2.77h.91v2.73c0,.5.11.87.33,1.1s.52.34.92.34.7-.12.92-.34c.21-.23.32-.59.32-1.1v-2.73h.9v2.77c0,.71-.19,1.26-.57,1.64-.38.38-.9.57-1.57.57Z"/>
      <path class="cls-1" d="m256.06,66.94c-.38,0-.75-.06-1.1-.17-.35-.11-.63-.25-.83-.42l.31-.71c.2.15.44.28.73.38s.59.15.89.15c.26,0,.46-.03.62-.08.16-.06.28-.13.35-.23.07-.1.11-.2.11-.33,0-.15-.05-.27-.16-.36s-.25-.16-.42-.22c-.17-.05-.36-.1-.57-.15-.21-.05-.42-.1-.62-.17-.21-.06-.4-.14-.57-.25-.17-.1-.31-.23-.42-.4s-.16-.38-.16-.64.07-.51.21-.73.36-.4.65-.53c.29-.13.66-.2,1.11-.2.29,0,.58.04.88.11.29.08.54.18.76.32l-.29.71c-.22-.13-.45-.23-.68-.29-.23-.06-.46-.09-.67-.09-.25,0-.46.03-.61.09s-.27.14-.34.24c-.07.1-.11.21-.11.34,0,.15.05.27.16.36.11.09.24.16.41.21.17.05.36.1.57.15s.42.1.63.16.4.14.57.24c.17.1.31.23.41.4.1.17.16.38.16.64s-.07.5-.21.72-.36.4-.65.53c-.29.13-.67.2-1.11.2Z"/>
    </g>
  </g>
  <g id="studus-vec">
    <g>
      <path class="cls-1" d="m124.59,39.13c-.59,0-1.11-.24-1.56-.73-.73-1.14-2.08-1.72-4.06-1.72-1.11,0-2.04.23-2.78.68-.75.45-1.12,1.06-1.12,1.82,0,.97.76,1.75,2.29,2.34l5.25,1.82c3.81,1.35,5.72,3.59,5.72,6.71,0,2.32-.85,4.09-2.55,5.3-1.7,1.21-3.85,1.82-6.45,1.82-2.32,0-4.26-.46-5.82-1.38s-2.63-2.16-3.22-3.72c-.14-.38-.1-.75.13-1.09.23-.35.56-.55,1.01-.62l1.87-.26c.69,0,1.18.26,1.46.78.8,1.42,2.36,2.13,4.68,2.13,1.25,0,2.3-.25,3.15-.75.85-.5,1.27-1.19,1.27-2.05,0-1.14-.95-2.05-2.86-2.7l-5.2-1.72c-1.8-.62-3.13-1.44-3.98-2.44-.85-1.01-1.27-2.27-1.27-3.8,0-2.32.82-4.07,2.47-5.25,1.65-1.18,3.75-1.77,6.32-1.77,2.05,0,3.79.41,5.23,1.22,1.44.81,2.44,1.93,2.99,3.35.14.35.1.69-.1,1.04s-.54.55-.99.62l-1.87.36Z"/>
      <path class="cls-1" d="m132.47,36.9c-.26-.28-.39-.61-.39-.99v-1.4c0-.38.13-.7.39-.96.26-.26.58-.39.96-.39h2.18v-3.22c0-.42.14-.76.42-1.04.28-.28.64-.42,1.09-.42h1.72c.42,0,.77.14,1.07.42.29.28.44.62.44,1.04v3.22h4.99c.38,0,.7.13.96.39.26.26.39.58.39.96v1.4c0,.38-.13.71-.39.99s-.58.42-.96.42h-4.99v11.49c0,.9.29,1.66.88,2.29s1.32.94,2.18.94h1.92c.38,0,.7.14.96.42s.39.61.39.99v1.77c0,.38-.13.7-.39.96-.26.26-.58.39-.96.39h-2.24c-2.12,0-3.89-.68-5.33-2.05-1.44-1.37-2.16-3.08-2.16-5.12v-12.06h-2.18c-.38,0-.7-.14-.96-.42Z"/>
      <path class="cls-1" d="m152.77,33.57c.28-.28.62-.42,1.04-.42h1.77c.42,0,.77.14,1.07.42s.44.62.44,1.04v12.01c0,1.73.57,3.17,1.72,4.32,1.14,1.14,2.57,1.72,4.26,1.72s3.26-.59,4.47-1.77c1.21-1.18,1.82-2.62,1.82-4.32v-11.96c0-.42.14-.76.42-1.04s.62-.42,1.04-.42h1.77c.42,0,.76.14,1.04.42s.42.62.42,1.04v20.49c0,.42-.14.76-.42,1.04s-.62.42-1.04.42h-1.77c-.42,0-.76-.14-1.04-.42s-.42-.62-.42-1.04v-1.92c-1.77,2.67-4.32,4-7.64,4-2.7,0-4.94-.88-6.71-2.65-1.77-1.77-2.65-3.97-2.65-6.6v-13.31c0-.42.14-.76.42-1.04Z"/>
      <path class="cls-1" d="m183.5,53.64c-2.15-2.36-3.22-5.29-3.22-8.79s1.07-6.43,3.22-8.79c2.15-2.36,4.82-3.54,8.01-3.54s5.86,1.16,8.01,3.48v-15.7c0-.42.14-.76.42-1.04s.62-.42,1.04-.42h1.77c.42,0,.76.14,1.04.42s.42.62.42,1.04v34.79c0,.42-.14.76-.42,1.04s-.62.42-1.04.42h-1.77c-.42,0-.76-.14-1.04-.42s-.42-.62-.42-1.04v-1.4c-2.15,2.32-4.82,3.48-8.01,3.48s-5.86-1.18-8.01-3.54Zm3.72-14.2c-1.37,1.46-2.05,3.26-2.05,5.41s.68,3.95,2.05,5.41,3.06,2.18,5.07,2.18,3.7-.73,5.07-2.18c1.37-1.46,2.05-3.26,2.05-5.41s-.68-3.95-2.05-5.41c-1.37-1.46-3.06-2.18-5.07-2.18s-3.7.73-5.07,2.18Z"/>
      <path class="cls-1" d="m211.84,33.57c.28-.28.62-.42,1.04-.42h1.77c.42,0,.77.14,1.07.42s.44.62.44,1.04v12.01c0,1.73.57,3.17,1.72,4.32,1.14,1.14,2.57,1.72,4.26,1.72s3.26-.59,4.47-1.77c1.21-1.18,1.82-2.62,1.82-4.32v-11.96c0-.42.14-.76.42-1.04.28-.28.62-.42,1.04-.42h1.77c.42,0,.76.14,1.04.42s.42.62.42,1.04v20.49c0,.42-.14.76-.42,1.04s-.62.42-1.04.42h-1.77c-.42,0-.76-.14-1.04-.42-.28-.28-.42-.62-.42-1.04v-1.92c-1.77,2.67-4.32,4-7.64,4-2.7,0-4.94-.88-6.71-2.65-1.77-1.77-2.65-3.97-2.65-6.6v-13.31c0-.42.14-.76.42-1.04Z"/>
      <path class="cls-1" d="m253.65,39.13c-.59,0-1.11-.24-1.56-.73-.73-1.14-2.08-1.72-4.06-1.72-1.11,0-2.04.23-2.78.68-.75.45-1.12,1.06-1.12,1.82,0,.97.76,1.75,2.29,2.34l5.25,1.82c3.81,1.35,5.72,3.59,5.72,6.71,0,2.32-.85,4.09-2.55,5.3-1.7,1.21-3.85,1.82-6.45,1.82-2.32,0-4.26-.46-5.82-1.38-1.56-.92-2.63-2.16-3.22-3.72-.14-.38-.1-.75.13-1.09s.56-.55,1.01-.62l1.87-.26c.69,0,1.18.26,1.46.78.8,1.42,2.36,2.13,4.68,2.13,1.25,0,2.3-.25,3.15-.75.85-.5,1.27-1.19,1.27-2.05,0-1.14-.95-2.05-2.86-2.7l-5.2-1.72c-1.8-.62-3.13-1.44-3.98-2.44s-1.27-2.27-1.27-3.8c0-2.32.82-4.07,2.47-5.25,1.65-1.18,3.75-1.77,6.32-1.77,2.04,0,3.79.41,5.23,1.22,1.44.81,2.44,1.93,2.99,3.35.14.35.1.69-.1,1.04-.21.35-.54.55-.99.62l-1.87.36Z"/>
    </g>
  </g>
</svg>